<svg version="1.1" xmlns="http://www.w3.org/2000/svg" x="0" y="0" width="198.59" height="177.64" viewBox="0" xml:space="preserve"><path fill-rule="evenodd" clip-rule="evenodd" fill="#EE3E96" d="M110.62 45.31l9.02-18.1c0.02-0.02 0.03-0.04 0.03-0.06 0.04-0.06 0.07-0.11 0.09-0.17l7.61-15.23h7.79c0.48 0 0.92-0.1 1.32-0.32 1.53-0.8 2.6-2.01 3.22-3.62 1-2.58 0.29-4.48-2.13-5.69h0.03c-1.28-0.88-3.07-0.93-5.37-0.14 -0.25 0.1-0.51 0.19-0.77 0.29 -0.02 0.02-0.05 0.04-0.09 0.06 -0.29 0.1-0.59 0.21-0.92 0.34 -1.34 0.48-2.9 1-4.68 1.55 -0.02 0-0.04 0.01-0.06 0.03 -0.65 0.17-1.44 0.36-2.36 0.55h0.03c-2.26 0.44-5.31 0.84-9.16 1.21h-0.09c-0.78 0-1.46 0.29-2.04 0.86 -0.56 0.56-0.83 1.23-0.83 2.01 0 0.79 0.28 1.47 0.83 2.04 0.57 0.56 1.25 0.83 2.04 0.83h6.81l-5.6 11.23H73.82L79.39 0H58.48c-2.66 0.04-4.94 0.99-6.84 2.85l-0.03 0.03c-1.9 1.92-2.84 4.22-2.84 6.9s0.95 4.98 2.84 6.9l0.03 0.03c1.92 1.9 4.21 2.84 6.9 2.84h2.87c0.79 0 1.46-0.28 2.01-0.83 0.57-0.57 0.86-1.25 0.86-2.04s-0.29-1.45-0.86-2.01c-0.56-0.57-1.23-0.86-2.01-0.86h-2.87c-1.09 0-2.04-0.38-2.84-1.15 0-0.02-0.01-0.03-0.03-0.03 -0.77-0.8-1.15-1.75-1.15-2.84 0-1.09 0.38-2.04 1.15-2.85 0.02 0 0.03-0.01 0.03-0.03 0.79-0.75 1.72-1.13 2.82-1.15h13.59L54.42 78.43c0.56-0.19 1.15-0.29 1.78-0.29 1.44 0 2.64 0.51 3.62 1.52 0.06 0.06 0.12 0.12 0.17 0.17l9.8-40.37c6.59 0.35 12.21 1.01 16.86 2.01H86.63c6.57 1.42 12.82 3.88 18.76 7.38 0.08 0.02 0.14 0.05 0.2 0.09 0.23 0.13 0.46 0.28 0.69 0.43 0.02 0 0.03 0.01 0.03 0.03 11.43 6.88 21.87 17.5 31.32 31.86 0.25-0.59 0.61-1.13 1.09-1.61 1-1.01 2.22-1.52 3.68-1.52 0.02 0 0.04 0 0.06 0C132.82 63.49 122.21 52.55 110.62 45.31zM105.62 42.41c-5.65-3.03-11.57-5.2-17.75-6.52 -4.63-1.02-10.2-1.71-16.69-2.1l1.24-5.06h40.05L105.62 42.41z"/><path fill-rule="evenodd" clip-rule="evenodd" fill="#EE3E96" d="M140.36 81.28c0.56-0.56 1.23-0.83 2.04-0.83 0.79 0 1.45 0.28 1.98 0.83l0.03 0.03c0.06 0.06 0.11 0.13 0.17 0.2 0.46 0.5 0.69 1.1 0.69 1.81 0 0.52-0.12 0.98-0.37 1.38 -0.11 0.23-0.28 0.45-0.49 0.66h-0.03c-0.54 0.56-1.2 0.83-1.98 0.83 -0.8 0-1.48-0.28-2.04-0.83 -0.56-0.57-0.83-1.25-0.83-2.04 0-0.79 0.28-1.46 0.83-2.01V81.28z"/><path fill-rule="evenodd" clip-rule="evenodd" fill="#EE3E96" d="M100.82 154.85c-1.88-2.26-4.24-3.8-7.1-4.62h0.03c-1.01-0.35-2.04-0.49-3.07-0.43 -2.13-0.29-4.21-0.05-6.26 0.72h-0.03c-4.46 1.76-7.46 4.9-8.99 9.42 -1.69 4.79-1.02 9.17 2.01 13.13 0.73 1 1.65 1.7 2.76 2.13 3.74 1.48 7.58 1.55 11.52 0.23 4.46-1.51 8.06-4.22 10.8-8.13v0.03c0.61-0.86 1.03-1.82 1.26-2.87C104.42 160.72 103.45 157.52 100.82 154.85zM100.05 163.76c-2.51 3.41-5.77 5.86-9.8 7.35 -2.3 0.88-4.63 1.06-7.01 0.52 -0.04-0.02-0.07-0.03-0.09-0.03 -0.48-0.08-0.92-0.27-1.32-0.57h0.06c-3.31-3.04-4.24-6.71-2.79-11 0.77-2.32 2.3-3.87 4.6-4.66 4.1-1.42 8.16-1.37 12.18 0.14 0.61 0.48 1.2 0.95 1.75 1.41 1.67 1.28 2.63 2.95 2.9 5C100.61 162.57 100.45 163.19 100.05 163.76z"/><path fill-rule="evenodd" clip-rule="evenodd" fill="#EE3E96" d="M70.63 149.89c0.23 0.06 0.4 0.17 0.52 0.35 0.13 0.17 0.2 0.36 0.2 0.57v0.43l0.63 0.58c0.17 0.21 0.27 0.44 0.29 0.69 0.04 0.25-0.03 0.49-0.2 0.72 -1.32 1.8-3.06 3.2-5.23 4.2h0.06c-3.35 1.69-6.55 3.63-9.6 5.83 2.13 1.34 4.27 2.67 6.44 3.99 2.41 1.46 4.76 3.02 7.04 4.68 0.94 0.67 1.88 1.39 2.82 2.16 0.17 0.11 0.3 0.29 0.37 0.52 0.06 0.19 0.04 0.41-0.06 0.66l-0.55 1.26c-0.08 0.17-0.21 0.33-0.4 0.46 -0.21 0.12-0.41 0.16-0.6 0.14h-0.08c-0.13 0.15-0.32 0.27-0.55 0.34 -0.25 0.06-0.47 0.02-0.66-0.11 -5.65-2.78-11.05-6.02-16.2-9.74 -0.9-0.61-1.64-1.35-2.21-2.21 0 0.23 0 0.46 0 0.69 -0.04 2.24 0.2 4.44 0.72 6.61 0.19 0.98 0.14 1.97-0.14 2.96v0.03c-0.33 1.11-1.08 1.75-2.27 1.93h-0.03c-1.05 0.12-2.06-0.07-3.02-0.55 -0.19-0.1-0.33-0.22-0.4-0.37 -0.11-0.19-0.17-0.39-0.17-0.6l1.41-36.37c0-0.06 0.01-0.1 0.03-0.11l-0.06-0.2c0-0.8 0.51-1.32 1.52-1.55 0.36-0.08 0.67-0.06 0.92 0.06 0.12 0.04 0.22 0.12 0.32 0.23l1.03 0.81c0.1 0.1 0.19 0.21 0.29 0.34 0.04 0.14 0.06 0.28 0.06 0.43 -0.04 7.01-0.09 14.01-0.14 21 3.6-2.78 7.38-5.22 11.35-7.33 1.13-0.6 2.12-1.3 2.96-2.13 0.54-0.5 1.06-1 1.58-1.49 0.12-0.13 0.26-0.22 0.43-0.26 0.19-0.06 0.38-0.06 0.57 0L70.63 149.89z"/><path fill-rule="evenodd" clip-rule="evenodd" fill="#EE3E96" d="M58.19 81.28l0.03 0.03c0.57 0.56 0.86 1.23 0.86 2.01 0 0.15-0.02 0.32-0.06 0.49 -0.02 0.23-0.09 0.46-0.2 0.69 -0.13 0.31-0.33 0.59-0.6 0.86h-0.03c-0.15 0.15-0.31 0.3-0.49 0.43 -0.1 0.04-0.18 0.09-0.26 0.14 -0.11 0.04-0.24 0.09-0.37 0.14 -0.29 0.08-0.57 0.11-0.86 0.11h-0.17c-0.42-0.02-0.8-0.12-1.15-0.31l-0.55-0.35c-0.06-0.06-0.11-0.11-0.17-0.17 -0.11-0.13-0.23-0.27-0.34-0.4l-0.09-0.14c-0.29-0.48-0.42-0.98-0.4-1.49v-0.03c0-0.11 0.01-0.22 0.03-0.32 0.02-0.19 0.06-0.38 0.12-0.57 0.13-0.4 0.36-0.77 0.69-1.09v-0.03c0.56-0.56 1.24-0.83 2.04-0.83C56.99 80.44 57.65 80.72 58.19 81.28z"/><path fill-rule="evenodd" clip-rule="evenodd" fill="#EE3E96" d="M107.66 137.42c0.04-0.36 0.13-0.7 0.29-1.01 0.06-0.21 0.19-0.36 0.4-0.46 0.15-0.11 0.32-0.17 0.49-0.17l2.53-0.06c0.19 0 0.37 0.06 0.55 0.17 0.21 0.08 0.35 0.22 0.43 0.43 0.08 0.19 0.11 0.38 0.09 0.57 -0.73 4.29-1 8.6-0.8 12.93 0.19 4.02 0.39 8.05 0.6 12.09 0.19 4.27 0.29 8.57 0.29 12.9 0 0.17-0.06 0.34-0.17 0.49 -0.08 0.15-0.19 0.28-0.35 0.37 -0.17 0.14-0.36 0.23-0.57 0.29 -0.15 0.14-0.32 0.26-0.52 0.37 -0.13 0.08-0.28 0.12-0.43 0.12l-0.06 0.06c-0.21 0.12-0.44 0.15-0.69 0.12 -0.31-0.06-0.6-0.11-0.89-0.17 -0.06 0-0.1-0.02-0.11-0.06 -0.36-0.13-0.68-0.35-0.95-0.66 -0.15-0.13-0.3-0.3-0.43-0.49 -0.1-0.15-0.14-0.3-0.14-0.43 -0.02-0.15-0.01-0.3 0.03-0.43 0.33-1.09 0.56-2.14 0.72-3.16 0.29-1.93 0.31-3.87 0.06-5.8 -0.75-6.26-1.12-12.55-1.12-18.87C106.89 143.41 107.14 140.37 107.66 137.42z"/><path fill-rule="evenodd" clip-rule="evenodd" fill="#EE3E96" d="M139.06 163.59c-0.29-1.23-0.53-2.44-0.72-3.65 -0.67-3.62-2.12-6.88-4.34-9.8 -0.8-1.07-1.83-1.82-3.07-2.24h-0.06c-2.05-0.65-4.18-0.74-6.41-0.26h0.06c-1.92 0.36-3.5 1.25-4.74 2.67 -0.15 0.15-0.23 0.36-0.23 0.63 0 0.06 0 0.14 0 0.23v0.14c0 0.06 0 0.13 0 0.2 0 0.4 0.12 0.8 0.37 1.18 0.38 0.63 1 0.95 1.87 0.95 0.35 0 0.58-0.08 0.72-0.23 0.02-0.02 0.07-0.05 0.14-0.09 2.57-1.82 5.28-2.1 8.13-0.83h0.06c0.61 0.25 1.01 0.71 1.18 1.38 0.36 1.36 0.73 2.74 1.09 4.14 -4.08 0.19-7.61 1.75-10.6 4.68 -1.97 1.99-3.32 4.29-4.05 6.9 -0.25 0.82-0.21 1.7 0.11 2.61 0.5 1.3 1.35 2.41 2.56 3.33 1.86 1.44 4.01 2.02 6.46 1.75 4-0.08 7.9-0.78 11.69-2.13 0.15-0.06 0.3-0.15 0.43-0.29 0.08-0.1 0.14-0.22 0.2-0.37 0.06-0.17 0.09-0.34 0.09-0.49v-0.03C140.13 170.48 139.81 167.02 139.06 163.59zM125.79 173.1c-0.78-0.02-1.48-0.17-2.1-0.46 -0.34-0.65-0.52-1.19-0.52-1.61 0-1.38 0.73-2.98 2.18-4.8 1.02-1.21 2.07-2.13 3.16-2.76 1.17-0.29 2.34-0.57 3.51-0.83h1.03c0.29 0.1 0.56 0.21 0.81 0.34 0.23 0.14 0.46 0.3 0.69 0.49 0.06 0.31 0.09 0.6 0.09 0.89 0.27 2.57 0.46 5.08 0.57 7.56C132.11 172.76 128.97 173.16 125.79 173.1z"/><path fill-rule="evenodd" clip-rule="evenodd" fill="#7C8C38" d="M197.82 151.78l0.03 0.57c0.04 0.29-0.04 0.55-0.23 0.78 -4.9 5.92-9.47 12.08-13.7 18.47l12.04-0.4c0.02 0 0.06 0 0.12 0l0.92 0.06c0.29 0.02 0.51 0.12 0.66 0.29 0.73 0.73 1.03 1.64 0.92 2.73 -0.02 0.31-0.07 0.63-0.14 0.98 -0.08 0.21-0.2 0.39-0.37 0.55 -0.19 0.12-0.4 0.17-0.63 0.17l-17.61-0.43c-0.19 0-0.36-0.06-0.52-0.17 -0.17-0.11-0.3-0.25-0.37-0.4l-0.43-0.8c-0.1-0.29-0.11-0.53-0.06-0.72 1.03-4.14 2.95-7.89 5.75-11.26 2.45-2.91 4.92-5.78 7.41-8.62l-5.49-0.23c-0.09 0.04-0.18 0.07-0.26 0.09h-4.48c-0.31 0.15-0.78 0.23-1.44 0.23 -0.25 0-0.46-0.01-0.63-0.03 -0.21 0.02-0.37 0.03-0.49 0.03 -0.21 0-0.38-0.03-0.52-0.09 -0.19-0.08-0.46-0.24-0.8-0.49 -0.56-0.36-0.84-0.65-0.86-0.86 -0.27-0.46-0.4-0.97-0.4-1.52 0-0.42 0.09-0.73 0.26-0.92 0.02-0.04 0.06-0.1 0.11-0.17v-0.03c0-0.52 0.18-0.8 0.55-0.86 0.11-0.02 0.24-0.02 0.37 0 0.23-0.02 0.51 0.01 0.83 0.09 1.09 0.17 1.73 0.26 1.93 0.26 0.14 0 0.28 0.01 0.43 0.03 5.78-1.3 11.3-0.67 16.55 1.9 0.15 0.08 0.29 0.19 0.4 0.34C197.74 151.46 197.8 151.61 197.82 151.78z"/><path fill-rule="evenodd" clip-rule="evenodd" fill="#7C8C38" d="M142.45 54.59c-0.02 0-0.04 0-0.06 0 -4.75 0.06-9.15 1.06-13.22 3.02 -2.89-3.01-5.87-5.74-8.93-8.22 6.63-4.12 13.99-6.22 22.09-6.29 0.02 0 0.04 0 0.06 0h0.14c11.11 0.04 20.54 3.97 28.3 11.81h-0.03c7.62 7.59 11.55 16.7 11.78 27.35l-6.29-6.29 -5.26 5.23c-0.46-7.03-3.24-13.08-8.33-18.16l-0.03-0.03c-5.53-5.57-12.26-8.38-20.17-8.42H142.45z"/><path fill-rule="evenodd" clip-rule="evenodd" fill="#7C8C38" d="M120.56 63.67c-4.29 4.1-8.72 9.9-13.3 17.41 -0.31-0.56-0.62-1.12-0.95-1.69h-0.03c-1.88-3.37-3.75-6.49-5.63-9.36 3.83-5.75 7.58-10.41 11.23-13.99C114.85 58.28 117.75 60.83 120.56 63.67z"/><path fill-rule="evenodd" clip-rule="evenodd" fill="#7C8C38" d="M92.26 87.25v0.03c1.92 3.37 3.8 6.49 5.66 9.37 -4.83 7.26-9.55 12.81-14.16 16.66 -7.95 6.7-17.11 10.11-27.49 10.23 -0.02 0-0.04 0-0.06 0h-0.14c-11.03-0.04-20.46-3.96-28.27-11.78 -0.02 0-0.03-0.01-0.03-0.03 -7.6-7.58-11.53-16.7-11.78-27.35l6.32 6.32 5.23-5.23c0.48 7.01 3.27 13.05 8.36 18.13v0.03c5.57 5.57 12.3 8.38 20.17 8.42h0.09c0.02 0 0.04 0 0.06 0 7.6-0.1 14.32-2.6 20.14-7.53v0.03c4.83-4.16 9.82-10.48 14.97-18.96C91.64 86.14 91.96 86.7 92.26 87.25z"/><path fill-rule="evenodd" clip-rule="evenodd" fill="#7C8C38" d="M122.26 104.52c5.84 4.94 12.57 7.45 20.2 7.53 0.38 0 0.75 0.04 1.09 0.12v-0.03c0-0.04 0-0.07 0-0.09 7.45-0.27 13.83-3.07 19.13-8.42l0.03-0.03c4.21-4.17 6.84-9.02 7.87-14.54h-4.14l9.85-9.85 9.85 9.85h-3.91c-1.13 8.68-4.93 16.23-11.4 22.67l-0.03 0.03c-7.53 7.59-16.61 11.51-27.26 11.78 0-0.04 0-0.08 0-0.11 -0.38 0.08-0.78 0.12-1.21 0.12 -10.38-0.11-19.55-3.52-27.49-10.23 -6.63-5.54-13.48-14.59-20.57-27.18 -6.21-11.09-12.18-19.1-17.93-24.02 -2.62-2.22-5.43-3.94-8.42-5.17l2.73-11.29c4.69 1.71 9.06 4.26 13.1 7.67v0.03c6.63 5.52 13.48 14.57 20.54 27.15 6.23 11.09 12.21 19.11 17.96 24.05V104.52z"/><path fill-rule="evenodd" clip-rule="evenodd" fill="#7C8C38" d="M60.6 43.35l-2.76 11.29c-0.56-0.04-1.12-0.06-1.69-0.06 -0.38 0-0.75-0.04-1.09-0.11 0 0.02 0 0.04 0 0.06 0 0.02 0 0.05 0 0.09 -7.43 0.25-13.82 3.05-19.16 8.39v0.03c-4.21 4.19-6.85 9.04-7.9 14.54h4.17l-9.85 9.85 -9.85-9.85h3.91c1.15-8.66 4.95-16.21 11.41-22.67h0.03c7.57-7.6 16.65-11.53 27.27-11.78 0 0.02 0 0.05 0 0.09 0.38-0.08 0.79-0.11 1.21-0.11C57.74 43.12 59.18 43.2 60.6 43.35z"/><path fill-rule="evenodd" clip-rule="evenodd" fill="#7C8C38" d="M22.42 149.23c0.15 0.04 0.3 0.1 0.43 0.2 0.13 0.1 0.23 0.21 0.29 0.34 0.48 1.03 0.45 2.03-0.09 2.99v0.03c-0.17 0.25-0.38 0.49-0.63 0.72 -0.11 0.14-0.24 0.22-0.37 0.26 -0.13 0.06-0.29 0.09-0.46 0.09 -2.83-0.29-5.66-0.18-8.47 0.32 -3.43 1.53-5.62 4.17-6.58 7.93 -1.05 4.25-1.58 8.56-1.58 12.93 0 0.19-0.05 0.36-0.14 0.52 -0.11 0.17-0.22 0.3-0.32 0.37l-1.03 0.63c-0.17 0.09-0.36 0.14-0.57 0.14 -0.15 0-0.28-0.02-0.37-0.06 -0.17 0-0.36 0-0.57 0 -0.69 0-1.16-0.2-1.41-0.6 -0.06-0.08-0.1-0.19-0.14-0.35 -0.11-0.1-0.19-0.17-0.23-0.23 -0.08-0.17-0.11-0.44-0.11-0.8v-0.06c-0.04-0.13-0.05-0.28-0.03-0.43 0.56-4.79 1.21-9.58 1.95-14.36v-0.06c0.19-1.21 0.6-2.35 1.24-3.42 1.92-3.58 4.86-5.88 8.82-6.89C15.45 148.6 18.91 148.54 22.42 149.23z"/><path fill-rule="evenodd" clip-rule="evenodd" fill="#7C8C38" d="M44.14 157.73c-1.25-2.28-2.91-4.18-5-5.69 -2.55-1.88-5.35-2.33-8.42-1.35 -3.47 1.05-6.24 3.13-8.33 6.23h0.03c-2.13 3.05-3.03 6.45-2.7 10.2 0.25 2.6 1.3 4.81 3.16 6.61 0.92 0.9 1.99 1.55 3.22 1.95 5.56 1.73 10.93 1.22 16.12-1.52 0.13-0.06 0.27-0.16 0.4-0.32 0.73-1.05 0.71-2.02-0.06-2.9 -0.61-0.8-1.49-1.17-2.64-1.09 -0.23 0-0.43 0.09-0.6 0.26 -2.6 2.07-5.53 2.91-8.79 2.53l0.03 0.06c-1.57-0.27-3.04-0.83-4.42-1.69v-0.06c-0.73-0.4-1.31-0.95-1.75-1.64 -0.8-1.21-1.17-2.61-1.09-4.22l19.91-0.72c0.19 0 0.38-0.07 0.57-0.2 0.29-0.19 0.52-0.44 0.69-0.75v0.03C45.76 161.51 45.65 159.6 44.14 157.73zM24.32 161.18c1.25-2.51 3.14-4.38 5.69-5.6 0.79-0.36 1.62-0.64 2.5-0.83h-0.09c0.98-0.17 1.97-0.22 2.99-0.14 0.61 0.14 1.19 0.4 1.72 0.81 1.8 1.25 2.94 2.96 3.42 5.14C35.19 161.29 29.77 161.5 24.32 161.18z"/><path fill-rule="evenodd" clip-rule="evenodd" fill="#7C8C38" d="M169.23 152.07c0 0.65-0.02 1.03-0.06 1.15 -0.25 0.48-0.96 0.72-2.13 0.72 -1.17 0-2-0.1-2.5-0.32 -0.61-0.23-1.08-0.35-1.41-0.37 -0.15 0-0.29-0.01-0.4-0.03 -0.56 0.14-1.08 0.35-1.58 0.63 -1.82 0.94-3.21 2.37-4.16 4.28 -1.26 3.1-0.91 6.08 1.06 8.93 0.67 0.96 1.52 1.8 2.56 2.53h0.06c1.55 1.15 3.31 1.48 5.29 1.01h0.03c1.01-0.21 2.1-0.39 3.25-0.55 0.17-0.04 0.34-0.02 0.49 0.06 0.17 0.06 0.38 0.12 0.63 0.2 0.15 0.04 0.31 0.14 0.46 0.29 0.14 0.15 0.21 0.33 0.23 0.55l0.2 1.67c0.04 0.21 0 0.42-0.11 0.63 -0.11 0.19-0.28 0.32-0.49 0.4 -3.7 1.61-7.35 1.49-10.95-0.35 -2.89-1.42-5.01-3.6-6.35-6.55 -1.36-2.89-1.45-5.84-0.26-8.85 1.15-2.89 2.95-5.23 5.4-7.01 2.55-1.9 5.38-2.42 8.5-1.58 0.31 0.06 0.66 0.12 1.06 0.2 0.13 0.06 0.27 0.15 0.4 0.29 0.13 0.12 0.28 0.26 0.43 0.43C169.11 151.06 169.23 151.61 169.23 152.07z"/><path fill-rule="evenodd" clip-rule="evenodd" fill="#7C8C38" d="M145.76 170.17c0-0.04 0.01-0.06 0.03-0.06 0.57-0.56 1.25-0.83 2.04-0.83 0.75 0 1.39 0.28 1.93 0.83l0.06 0.06c0.52 0.56 0.78 1.2 0.78 1.93 0 0.79-0.26 1.48-0.77 2.07h-0.06c-0.54 0.52-1.18 0.78-1.92 0.78 -0.79 0-1.47-0.26-2.04-0.77h-0.03c-0.5-0.59-0.75-1.28-0.75-2.07C145.01 171.37 145.26 170.72 145.76 170.17z"/></svg>